<svg width="41" height="27" viewBox="0 0 41 27" fill="none" xmlns="http://www.w3.org/2000/svg">
<g clip-path="url(#clip0_1_18)">
<path d="M37.9294 -0.0153809H3.0706C1.3747 -0.0153809 0 1.36795 0 3.07449V23.9256C0 25.6321 1.3747 27.0155 3.0706 27.0155H37.9294C39.6252 27.0155 41 25.6322 41 23.9256V3.07449C41 1.36795 39.6253 -0.0153809 37.9294 -0.0153809Z" fill="#82C3D2"/>
<path d="M4.7655 3.22164C4.70152 2.94911 4.68558 2.84855 4.80714 2.7263C4.8664 2.66667 4.8664 2.57006 4.80714 2.51043C4.74788 2.4508 4.65187 2.4508 4.59261 2.51043C4.34661 2.75805 4.40531 3.01503 4.46897 3.28707C4.27502 3.22333 4.07386 3.27063 3.96608 3.40746C3.91259 3.47571 3.80912 3.66717 4.00299 3.97289C4.04808 4.04388 4.14129 4.06475 4.21248 4.01979C4.28319 3.97442 4.30377 3.8799 4.25868 3.80899C4.18597 3.69384 4.18381 3.62285 4.20415 3.5969C4.22817 3.5662 4.30265 3.55 4.38064 3.5778C4.43101 3.59537 4.54809 3.65621 4.54809 3.83993C4.54809 3.98667 4.48066 4.12116 4.36311 4.20859C4.24531 4.29626 4.09284 4.321 3.9459 4.27507C3.76444 4.21931 3.63768 4.02696 3.63768 3.80722C3.63768 3.65 3.67115 3.4911 3.73265 3.35185C3.74242 3.33131 3.97433 2.8479 4.03406 2.66772C4.15218 2.31131 4.03214 2.1321 3.95022 2.05724C3.8406 1.95676 3.68036 1.9317 3.54246 1.99253C3.52148 2.00188 3.50419 2.01542 3.48601 2.02799C3.46783 2.01534 3.45046 2.00188 3.42955 1.99253C3.29174 1.9317 3.13158 1.95668 3.0218 2.05724C2.93988 2.1321 2.81984 2.31139 2.93796 2.66772C2.99769 2.8479 3.22952 3.33131 3.23729 3.34742C3.30079 3.49118 3.33434 3.65008 3.33434 3.8073C3.33434 4.02712 3.20766 4.21939 3.02612 4.27515C2.87862 4.321 2.72663 4.29658 2.60891 4.20867C2.49136 4.12124 2.42393 3.98683 2.42393 3.84001C2.42393 3.65629 2.54101 3.59553 2.59138 3.57788C2.66961 3.55016 2.74369 3.5662 2.76787 3.59698C2.78821 3.62293 2.78605 3.69392 2.71334 3.80907C2.66825 3.88006 2.68883 3.97466 2.75954 4.01987C2.83081 4.06524 2.92434 4.04404 2.96903 3.97297C3.16289 3.66725 3.05943 3.47587 3.00594 3.40754C2.89808 3.27071 2.697 3.22333 2.50305 3.28715C2.56679 3.01519 2.62541 2.75805 2.37941 2.51051C2.32015 2.45088 2.22414 2.45088 2.16488 2.51051C2.10562 2.57014 2.10562 2.66676 2.16488 2.72639C2.28636 2.84863 2.27058 2.94911 2.20652 3.22172C2.168 3.38505 2.12028 3.58876 2.12028 3.83985C2.12028 4.00698 2.17857 4.16669 2.27683 4.29795H2.27195C2.1881 4.29795 2.1202 4.36621 2.1202 4.45066C2.1202 4.5351 2.18802 4.60336 2.27195 4.60336H2.27683C2.17857 4.73454 2.12028 4.89433 2.12028 5.06138C2.12028 5.31247 2.168 5.51618 2.20636 5.67959C2.27034 5.9522 2.28628 6.05268 2.16472 6.17493C2.10546 6.23456 2.10546 6.33117 2.16472 6.3908C2.19435 6.42062 2.23319 6.43552 2.27203 6.43552C2.31078 6.43552 2.3497 6.42062 2.37933 6.3908C2.62533 6.14318 2.56663 5.88612 2.50297 5.61416C2.69692 5.67766 2.89808 5.6306 3.00586 5.49377C3.05935 5.42552 3.16281 5.23406 2.96895 4.92834C2.92402 4.85735 2.83025 4.83623 2.75946 4.88144C2.68875 4.92681 2.66817 5.02133 2.71326 5.09224C2.78597 5.20739 2.78813 5.27838 2.76779 5.30433C2.74369 5.33471 2.66953 5.35082 2.5913 5.32343C2.54093 5.30586 2.42385 5.24502 2.42385 5.0613C2.42385 4.91456 2.49128 4.78007 2.60883 4.69272C2.72663 4.60505 2.87894 4.57999 3.02604 4.62624C3.2075 4.682 3.33426 4.87435 3.33426 5.09409C3.33426 5.25131 3.30079 5.41021 3.23721 5.55397L2.24336 7.80379C2.16168 7.98872 2.1202 8.18526 2.1202 8.38768C2.1202 8.6482 2.23791 8.88607 2.42321 9.03128C2.23799 9.17648 2.1202 9.41436 2.1202 9.67488C2.1202 9.87738 2.16176 10.0739 2.24336 10.2588L3.23705 12.5085C3.30055 12.6523 3.3341 12.8112 3.3341 12.9684C3.3341 13.1882 3.20742 13.3805 3.02588 13.4362C2.87838 13.4825 2.72639 13.4577 2.60867 13.3698C2.49112 13.2823 2.42369 13.1479 2.42369 13.0012C2.42369 12.8175 2.54077 12.7567 2.59114 12.739C2.66937 12.7116 2.74345 12.7274 2.76763 12.7581C2.78797 12.7841 2.78581 12.8551 2.7131 12.9702C2.66801 13.0412 2.68859 13.1357 2.7593 13.181C2.83057 13.2264 2.9241 13.2054 2.96878 13.1341C3.16265 12.8284 3.05919 12.637 3.0057 12.5687C2.89784 12.4318 2.69676 12.3847 2.50281 12.4483C2.56655 12.1764 2.62517 11.9192 2.37917 11.6717C2.31991 11.612 2.2239 11.612 2.16464 11.6717C2.10538 11.7313 2.10538 11.8279 2.16464 11.8875C2.28612 12.0098 2.27034 12.1103 2.20628 12.3829C2.16792 12.5461 2.1202 12.7498 2.1202 13.0009C2.1202 13.168 2.17849 13.3278 2.27675 13.459H2.27187C2.18802 13.459 2.12012 13.5273 2.12012 13.6117C2.12012 13.6961 2.18794 13.7644 2.27187 13.7644H2.27675C2.17849 13.8957 2.1202 14.0554 2.1202 14.2225C2.1202 14.4736 2.16792 14.6773 2.20628 14.8408C2.27026 15.1134 2.2862 15.2138 2.16464 15.3361C2.10538 15.3957 2.10538 15.4923 2.16464 15.552C2.19427 15.5818 2.23311 15.5967 2.27195 15.5967C2.3107 15.5967 2.34962 15.5818 2.37925 15.552C2.62525 15.3043 2.56655 15.0473 2.50289 14.7753C2.69684 14.8388 2.898 14.7918 3.00578 14.6549C3.05927 14.5867 3.16273 14.3952 2.96887 14.0895C2.92394 14.0185 2.83017 13.9974 2.75938 14.0426C2.68867 14.088 2.66809 14.1825 2.71318 14.2534C2.78589 14.3686 2.78805 14.4395 2.76771 14.4655C2.74361 14.4962 2.66945 14.5122 2.59122 14.4846C2.54085 14.467 2.42377 14.4062 2.42377 14.2225C2.42377 14.0757 2.4912 13.9412 2.60875 13.8539C2.72655 13.7662 2.87886 13.7411 3.02596 13.7874C3.20742 13.8432 3.33418 14.0355 3.33418 14.2553C3.33418 14.4125 3.30071 14.5714 3.23713 14.7151L2.24336 16.9653C2.16168 17.1501 2.1202 17.3467 2.1202 17.5492C2.1202 17.8097 2.23791 18.0476 2.42321 18.1928C2.23799 18.3379 2.1202 18.5758 2.1202 18.8364C2.1202 19.0389 2.16176 19.2354 2.24336 19.4203L3.23705 21.67C3.30055 21.8137 3.3341 21.9727 3.3341 22.1299C3.3341 22.3497 3.20742 22.542 3.02588 22.5977C2.87838 22.644 2.72639 22.6189 2.60867 22.5312C2.49112 22.4438 2.42369 22.3094 2.42369 22.1627C2.42369 21.9789 2.54077 21.9182 2.59114 21.9005C2.66937 21.8731 2.74345 21.8888 2.76763 21.9196C2.78797 21.9456 2.78581 22.0166 2.7131 22.1317C2.66801 22.2027 2.68859 22.2972 2.7593 22.3425C2.83057 22.3879 2.9241 22.3669 2.96878 22.2956C3.16265 21.9899 3.05919 21.7985 3.0057 21.7302C2.89784 21.593 2.69676 21.5461 2.50281 21.6098C2.56655 21.3378 2.62517 21.0807 2.37917 20.8332C2.31991 20.7735 2.2239 20.7735 2.16464 20.8332C2.10538 20.8928 2.10538 20.9894 2.16464 21.049C2.28612 21.1713 2.27034 21.2718 2.20628 21.5444C2.16792 21.7076 2.1202 21.9112 2.1202 22.1623C2.1202 22.4016 2.23415 22.6295 2.42465 22.7731C2.23415 22.9167 2.1202 23.1446 2.1202 23.3839C2.1202 23.635 2.16792 23.8387 2.20628 24.0022C2.27026 24.2747 2.2862 24.3752 2.16464 24.4975C2.10538 24.5571 2.10538 24.6538 2.16464 24.7134C2.19427 24.7432 2.23311 24.7581 2.27195 24.7581C2.3107 24.7581 2.34962 24.7432 2.37925 24.7134C2.62525 24.4657 2.56655 24.2087 2.50289 23.9366C2.69684 24.0001 2.898 23.9531 3.00578 23.8163C3.05927 23.748 3.16273 23.5565 2.96887 23.2508C2.92394 23.1798 2.83017 23.159 2.75938 23.2039C2.68867 23.2493 2.66809 23.3438 2.71318 23.4147C2.78589 23.5299 2.78805 23.6009 2.76771 23.6268C2.74361 23.6575 2.66945 23.6733 2.59122 23.6459C2.54085 23.6283 2.42377 23.5675 2.42377 23.3838C2.42377 23.237 2.4912 23.1026 2.60875 23.0151C2.72655 22.9275 2.87886 22.9027 3.02596 22.9486C3.20742 23.0044 3.33418 23.1968 3.33418 23.4165C3.33418 23.5737 3.30071 23.7326 3.23921 23.8719C3.22944 23.8924 2.99753 24.3758 2.93779 24.556C2.81968 24.9124 2.93972 25.0916 3.02164 25.1665C3.0917 25.2306 3.18195 25.2643 3.2742 25.2643C3.32649 25.2643 3.37951 25.2533 3.42947 25.2313C3.45046 25.2219 3.46775 25.2084 3.48593 25.1958C3.50411 25.2085 3.52148 25.2219 3.54238 25.2313C3.59227 25.2533 3.64545 25.2643 3.69766 25.2643C3.78967 25.2643 3.88007 25.2306 3.95022 25.1665C4.03214 25.0916 4.15218 24.9123 4.03406 24.556C3.97433 24.3758 3.7425 23.8925 3.73473 23.8763C3.67123 23.7325 3.63768 23.5736 3.63768 23.4164C3.63768 23.1966 3.76436 23.0043 3.9459 22.9486C4.09348 22.9026 4.24539 22.9274 4.36311 23.015C4.48066 23.1025 4.54809 23.2369 4.54809 23.3837C4.54809 23.5674 4.43101 23.6282 4.38064 23.6458C4.30273 23.6733 4.22809 23.6575 4.20415 23.6267C4.18381 23.6008 4.18597 23.5298 4.25868 23.4146C4.30377 23.3437 4.28319 23.2492 4.21248 23.2038C4.14161 23.1591 4.04816 23.18 4.00299 23.2507C3.80912 23.5565 3.91259 23.7478 3.96608 23.8162C4.07394 23.953 4.27502 24.0001 4.46897 23.9366C4.40523 24.2085 4.34661 24.4657 4.59261 24.7133C4.62224 24.7431 4.66108 24.758 4.69991 24.758C4.73875 24.758 4.77759 24.7431 4.80722 24.7133C4.86648 24.6537 4.86648 24.557 4.80722 24.4974C4.68574 24.3752 4.70152 24.2747 4.76558 24.0021C4.80394 23.8387 4.85166 23.635 4.85166 23.3839C4.85166 23.1445 4.73771 22.9167 4.54729 22.7731C4.73771 22.6295 4.85166 22.4017 4.85166 22.1623C4.85166 21.9112 4.80394 21.7075 4.76558 21.544C4.7016 21.2715 4.68566 21.1709 4.80722 21.0487C4.86648 20.9891 4.86648 20.8925 4.80722 20.8328C4.74796 20.7732 4.65195 20.7732 4.59269 20.8328C4.34669 21.0805 4.40539 21.3374 4.46905 21.6095C4.2751 21.5457 4.07394 21.5926 3.96616 21.7299C3.91267 21.7981 3.8092 21.9896 4.00307 22.2953C4.04816 22.3663 4.14137 22.3872 4.21256 22.3422C4.28327 22.2968 4.30385 22.2023 4.25876 22.1314C4.18605 22.0162 4.18389 21.9453 4.20423 21.9193C4.22825 21.8886 4.30273 21.8728 4.38072 21.9002C4.43109 21.9178 4.54817 21.9786 4.54817 22.1623C4.54817 22.3091 4.48074 22.4436 4.36319 22.5309C4.24539 22.6186 4.09292 22.6436 3.94598 22.5974C3.76452 22.5416 3.63776 22.3493 3.63776 22.1295C3.63776 21.9724 3.67123 21.8134 3.73481 21.6697L4.7285 19.4199C4.81018 19.2351 4.85166 19.0385 4.85166 18.836C4.85166 18.5755 4.73395 18.3376 4.54865 18.1924C4.73395 18.0472 4.85166 17.8094 4.85166 17.5488C4.85166 17.3463 4.8101 17.1498 4.7285 16.965L3.73481 14.7152C3.67131 14.5715 3.63776 14.4125 3.63776 14.2553C3.63776 14.0355 3.76444 13.8432 3.94598 13.7875C4.09356 13.7416 4.24547 13.7663 4.36319 13.854C4.48074 13.9414 4.54817 14.0758 4.54817 14.2225C4.54817 14.4063 4.43109 14.467 4.38072 14.4847C4.30281 14.5124 4.22817 14.4964 4.20423 14.4656C4.18389 14.4396 4.18605 14.3686 4.25876 14.2535C4.30385 14.1825 4.28327 14.088 4.21256 14.0427C4.14169 13.998 4.04824 14.0188 4.00307 14.0896C3.8092 14.3953 3.91267 14.5867 3.96616 14.655C4.07402 14.7918 4.2751 14.839 4.46905 14.7754C4.40531 15.0474 4.34669 15.3045 4.59269 15.552C4.62232 15.5819 4.66116 15.5968 4.69999 15.5968C4.73883 15.5968 4.77767 15.5819 4.8073 15.552C4.86656 15.4924 4.86656 15.3957 4.8073 15.3362C4.68582 15.2139 4.7016 15.1134 4.76566 14.8408C4.80402 14.6774 4.85174 14.4737 4.85174 14.2226C4.85174 14.0555 4.79345 13.8958 4.69519 13.7645H4.70007C4.78392 13.7645 4.85182 13.6963 4.85182 13.6118C4.85182 13.5274 4.784 13.4591 4.70007 13.4591H4.69519C4.79345 13.3279 4.85174 13.1682 4.85174 13.001C4.85174 12.7499 4.80402 12.5462 4.76566 12.3828C4.70168 12.1102 4.68574 12.0097 4.8073 11.8875C4.86656 11.8278 4.86656 11.7312 4.8073 11.6716C4.74804 11.612 4.65203 11.612 4.59277 11.6716C4.34677 11.9192 4.40547 12.1763 4.46913 12.4482C4.27518 12.3847 4.07402 12.4318 3.96624 12.5686C3.91275 12.6369 3.80928 12.8283 4.00315 13.1341C4.04824 13.205 4.14145 13.2257 4.21264 13.181C4.28335 13.1356 4.30393 13.0411 4.25884 12.9702C4.18613 12.855 4.18397 12.784 4.20431 12.7581C4.22833 12.7274 4.30281 12.7116 4.3808 12.739C4.43117 12.7565 4.54825 12.8174 4.54825 13.0011C4.54825 13.1478 4.48082 13.2823 4.36327 13.3697C4.24547 13.4573 4.093 13.4821 3.94606 13.4362C3.7646 13.3804 3.63784 13.188 3.63784 12.9683C3.63784 12.8111 3.67131 12.6522 3.73489 12.5084L4.72858 10.2587C4.81026 10.0738 4.85174 9.87722 4.85174 9.6748C4.85174 9.41428 4.73403 9.1764 4.54873 9.0312C4.73403 8.88607 4.85174 8.64812 4.85174 8.3876C4.85174 8.1851 4.81018 7.98856 4.72858 7.80371L3.73489 5.55397C3.67139 5.41021 3.63784 5.25131 3.63784 5.09409C3.63784 4.87427 3.76452 4.682 3.94606 4.62624C4.09364 4.58039 4.24555 4.60505 4.36327 4.69272C4.48082 4.78015 4.54825 4.91456 4.54825 5.0613C4.54825 5.24502 4.43117 5.30578 4.3808 5.32343C4.30289 5.35091 4.22825 5.33479 4.20431 5.30433C4.18397 5.27838 4.18613 5.20739 4.25884 5.09224C4.30393 5.02125 4.28335 4.92673 4.21264 4.88144C4.14177 4.83672 4.04832 4.85727 4.00315 4.92826C3.80928 5.23398 3.91275 5.42536 3.96624 5.4937C4.0741 5.63052 4.27518 5.67766 4.46913 5.61408C4.40539 5.88604 4.34677 6.14318 4.59277 6.39072C4.6224 6.42054 4.66124 6.43544 4.70007 6.43544C4.73883 6.43544 4.77775 6.42054 4.80738 6.39072C4.86664 6.33109 4.86664 6.23447 4.80738 6.17484C4.6859 6.0526 4.70168 5.95212 4.76574 5.67951C4.8041 5.5161 4.85182 5.31239 4.85182 5.0613C4.85182 4.89417 4.79353 4.73446 4.69527 4.60319H4.70015C4.784 4.60319 4.8519 4.53494 4.8519 4.45049C4.8519 4.36605 4.78408 4.29779 4.70015 4.29779H4.69527C4.79353 4.16653 4.85182 4.0069 4.85182 3.83969C4.8515 3.58876 4.80378 3.38505 4.7655 3.22164ZM3.2256 2.57086C3.1717 2.40809 3.19052 2.31534 3.22608 2.28279C3.2493 2.26071 3.28453 2.26159 3.30687 2.27175C3.33426 2.28392 3.33426 2.30334 3.33426 2.31292C3.33426 2.39729 3.40209 2.46563 3.48601 2.46563C3.56985 2.46563 3.63776 2.39737 3.63776 2.31292C3.63776 2.30342 3.63776 2.284 3.66514 2.27175C3.68709 2.26159 3.72208 2.26071 3.74594 2.28279C3.78158 2.31534 3.8004 2.40809 3.74642 2.57086C3.70719 2.68892 3.56521 2.99625 3.48609 3.16305C3.40857 3.00012 3.26507 2.68972 3.2256 2.57086ZM3.48593 8.87116C3.52949 8.93071 3.57874 8.98615 3.63864 9.03128C3.57874 9.07648 3.52949 9.13184 3.48593 9.19139C3.44237 9.13184 3.39312 9.0764 3.33322 9.03128C3.39312 8.98599 3.44237 8.93071 3.48593 8.87116ZM3.48593 18.0324C3.52949 18.092 3.57874 18.1474 3.63864 18.1925C3.57874 18.2377 3.52949 18.2931 3.48593 18.3526C3.44237 18.2931 3.39312 18.2376 3.33322 18.1925C3.39312 18.1474 3.44237 18.0922 3.48593 18.0324ZM3.74626 24.6531C3.80016 24.8159 3.78134 24.9086 3.74578 24.9412C3.72192 24.9629 3.68693 24.962 3.66498 24.9522C3.6376 24.94 3.6376 24.9206 3.6376 24.911C3.6376 24.8267 3.56977 24.7583 3.48585 24.7583C3.40193 24.7583 3.3341 24.8266 3.3341 24.911C3.3341 24.9205 3.3341 24.94 3.30671 24.9522C3.28445 24.962 3.24922 24.963 3.22592 24.9412C3.19028 24.9086 3.17154 24.8159 3.22544 24.6531C3.26467 24.535 3.40665 24.2277 3.48577 24.0609C3.56321 24.2238 3.7067 24.5342 3.74626 24.6531ZM3.6372 22.7733C3.57978 22.8183 3.52885 22.8721 3.48593 22.9329C3.44309 22.8721 3.39208 22.8183 3.33466 22.7733C3.39208 22.7283 3.44301 22.6745 3.48593 22.6137C3.52877 22.6745 3.57962 22.7283 3.6372 22.7733ZM4.45095 19.296L3.48585 21.481L2.52075 19.296C2.45725 19.1522 2.42369 18.9933 2.42369 18.8361C2.42369 18.6163 2.55038 18.424 2.73191 18.3683C2.87934 18.3223 3.03157 18.3471 3.14912 18.4347C3.26668 18.5222 3.3341 18.6566 3.3341 18.8034C3.3341 18.9871 3.21703 19.0479 3.16666 19.0655C3.08842 19.093 3.01403 19.0772 2.99017 19.0464C2.96983 19.0205 2.97199 18.9495 3.0447 18.8343C3.08978 18.7634 3.0692 18.6689 2.99849 18.6235C2.92763 18.5788 2.83417 18.5997 2.78901 18.6704C2.59522 18.9762 2.6986 19.1675 2.75209 19.2359C2.86196 19.3754 3.06864 19.4235 3.26628 19.3539C3.28878 19.346 3.3116 19.3364 3.3341 19.3248V19.7109C3.3341 19.7108 3.33386 19.7107 3.33386 19.7107C3.3293 19.6302 3.26315 19.5668 3.18243 19.5668C3.09859 19.5668 3.03069 19.6351 3.03069 19.7195C3.03069 19.8191 3.09987 19.9919 3.33418 20.0454V20.3303C3.33418 20.4146 3.40201 20.483 3.48593 20.483C3.56977 20.483 3.63768 20.4147 3.63768 20.3303V20.0454C3.87191 19.9919 3.94117 19.8191 3.94117 19.7195C3.94117 19.6352 3.87351 19.5618 3.78975 19.5618C3.7059 19.5618 3.63832 19.6251 3.63832 19.7095C3.63824 19.7097 3.63776 19.7101 3.63768 19.7103V19.3249C3.66018 19.3364 3.683 19.3462 3.7055 19.3541C3.90314 19.4236 4.10974 19.3755 4.21969 19.236C4.27318 19.1678 4.37664 18.9763 4.18277 18.6706C4.13769 18.5996 4.04407 18.5787 3.97329 18.6237C3.90258 18.6691 3.882 18.7636 3.92708 18.8345C3.99979 18.9497 4.00195 19.0207 3.98161 19.0466C3.95759 19.0773 3.88328 19.0931 3.80512 19.0657C3.75475 19.0481 3.63768 18.9873 3.63768 18.8036C3.63768 18.6568 3.7051 18.5223 3.82266 18.4349C3.94045 18.3472 4.09292 18.3222 4.23987 18.3684C4.42132 18.4242 4.54809 18.6165 4.54809 18.8363C4.54809 18.9933 4.51461 19.1524 4.45095 19.296ZM4.45095 17.0892C4.51445 17.233 4.54801 17.3919 4.54801 17.5491C4.54801 17.7689 4.42132 17.9612 4.23979 18.0169C4.09252 18.0632 3.94013 18.0381 3.82258 17.9505C3.70502 17.863 3.6376 17.7286 3.6376 17.5819C3.6376 17.3982 3.75467 17.3374 3.80504 17.3197C3.88312 17.2923 3.95759 17.3081 3.98153 17.3388C4.00187 17.3648 3.99971 17.4358 3.927 17.5509C3.88192 17.6219 3.9025 17.7164 3.97321 17.7617C4.04447 17.8071 4.13801 17.7862 4.18269 17.7148C4.37656 17.4091 4.2731 17.2177 4.21961 17.1494C4.10966 17.0098 3.90306 16.9624 3.70542 17.0314C3.68292 17.0392 3.6601 17.049 3.6376 17.0604V16.6742L3.63784 16.6747C3.6424 16.7549 3.70855 16.8185 3.78927 16.8185C3.87311 16.8185 3.94101 16.7502 3.94101 16.6658C3.94101 16.5662 3.87183 16.3934 3.63752 16.3399V16.055C3.63752 15.9707 3.56969 15.9023 3.48577 15.9023C3.40193 15.9023 3.33402 15.9706 3.33402 16.055V16.3399C3.09979 16.3934 3.03053 16.5662 3.03053 16.6658C3.03053 16.7501 3.09819 16.8235 3.18195 16.8235C3.26579 16.8235 3.33338 16.7602 3.33338 16.6758C3.33346 16.6756 3.33394 16.6752 3.33394 16.6752L3.33402 17.0604C3.31152 17.0489 3.2887 17.0391 3.2662 17.0313C3.06856 16.9624 2.86188 17.0098 2.75201 17.1493C2.69852 17.2176 2.59506 17.409 2.78893 17.7148C2.83401 17.7857 2.92763 17.8064 2.99841 17.7617C3.06912 17.7163 3.0897 17.6218 3.04462 17.5509C2.97191 17.4357 2.96975 17.3647 2.99009 17.3388C3.01395 17.3081 3.08834 17.2923 3.16658 17.3197C3.21695 17.3372 3.33402 17.3981 3.33402 17.5818C3.33402 17.7285 3.2666 17.863 3.14904 17.9504C3.03125 18.038 2.8791 18.0631 2.73183 18.0169C2.55038 17.9611 2.42361 17.7687 2.42361 17.549C2.42361 17.3918 2.45709 17.2329 2.52067 17.0891L3.48577 14.9041L4.45095 17.0892ZM3.6372 13.612C3.57978 13.6569 3.52885 13.7108 3.48593 13.7716C3.44309 13.7108 3.39208 13.657 3.33466 13.612C3.39208 13.567 3.44301 13.5132 3.48593 13.4523C3.52877 13.5132 3.57962 13.5669 3.6372 13.612ZM4.45095 10.1348L3.48585 12.3198L2.52075 10.1348C2.45725 9.991 2.42369 9.83209 2.42369 9.67488C2.42369 9.45505 2.55038 9.26279 2.73191 9.20702C2.87934 9.16109 3.03157 9.18583 3.14912 9.2735C3.26668 9.36093 3.3341 9.49534 3.3341 9.64216C3.3341 9.82589 3.21703 9.88664 3.16666 9.90429C3.08842 9.93201 3.01403 9.91598 2.99017 9.88519C2.96983 9.85925 2.97199 9.78825 3.0447 9.6731C3.08978 9.60211 3.0692 9.50767 2.99849 9.46231C2.92763 9.41726 2.83417 9.43813 2.78901 9.50904C2.59522 9.81477 2.6986 10.0061 2.75209 10.0745C2.86196 10.214 3.06864 10.2617 3.26628 10.1925C3.28878 10.1846 3.3116 10.175 3.3341 10.1634V10.5496L3.33386 10.5491C3.3293 10.4689 3.26315 10.4053 3.18243 10.4053C3.09859 10.4053 3.03069 10.4736 3.03069 10.558C3.03069 10.6576 3.09987 10.8304 3.33418 10.8839V11.1688C3.33418 11.2531 3.40201 11.3215 3.48593 11.3215C3.56977 11.3215 3.63768 11.2532 3.63768 11.1688V10.8839C3.87191 10.8304 3.94117 10.6576 3.94117 10.558C3.94117 10.4737 3.87351 10.4003 3.78975 10.4003C3.7059 10.4003 3.63832 10.4635 3.63832 10.5479C3.63824 10.5481 3.63776 10.5485 3.63776 10.5485L3.63768 10.1634C3.66018 10.1749 3.683 10.1846 3.7055 10.1924C3.90314 10.2616 4.10974 10.214 4.21969 10.0744C4.27318 10.0061 4.37664 9.81468 4.18277 9.50896C4.13769 9.43765 4.04407 9.41686 3.97329 9.46222C3.90258 9.50759 3.882 9.60211 3.92708 9.67302C3.99979 9.78817 4.00195 9.85917 3.98161 9.88511C3.95759 9.91581 3.88328 9.93201 3.80512 9.90421C3.75475 9.88664 3.63768 9.8258 3.63768 9.64208C3.63768 9.49534 3.7051 9.36085 3.82266 9.27342C3.94045 9.18575 4.09292 9.16101 4.23987 9.20694C4.42132 9.26271 4.54809 9.45505 4.54809 9.6748C4.54809 9.83201 4.51461 9.99092 4.45095 10.1348ZM4.45095 7.9278C4.51445 8.07156 4.54801 8.23046 4.54801 8.38768C4.54801 8.6075 4.42132 8.79977 4.23979 8.85553C4.09252 8.90178 3.94013 8.87672 3.82258 8.78905C3.70502 8.70162 3.6376 8.56721 3.6376 8.42039C3.6376 8.23667 3.75467 8.17591 3.80504 8.15826C3.88312 8.13079 3.95759 8.14658 3.98153 8.17736C4.00187 8.20331 3.99971 8.2743 3.927 8.38945C3.88192 8.46044 3.9025 8.55496 3.97321 8.60025C4.04447 8.6453 4.13801 8.62467 4.18269 8.55343C4.37656 8.24771 4.2731 8.05633 4.21961 7.988C4.10966 7.84843 3.90306 7.80073 3.70542 7.86995C3.68292 7.87776 3.6601 7.88751 3.6376 7.89903V7.51289C3.6376 7.51297 3.63784 7.51313 3.63784 7.51313C3.6424 7.59355 3.70855 7.65697 3.78927 7.65697C3.87311 7.65697 3.94101 7.58872 3.94101 7.50427C3.94101 7.40467 3.87183 7.23191 3.63752 7.1784V6.89355C3.63752 6.80918 3.56969 6.74084 3.48577 6.74084C3.40193 6.74084 3.33402 6.8091 3.33402 6.89355V7.1784C3.09979 7.23191 3.03053 7.40467 3.03053 7.50427C3.03053 7.58864 3.09819 7.66205 3.18195 7.66205C3.26579 7.66205 3.33338 7.59879 3.33338 7.51442C3.33346 7.51418 3.33394 7.51378 3.33402 7.51354V7.89895C3.31152 7.88743 3.2887 7.87768 3.2662 7.86986C3.06856 7.80073 2.86188 7.84835 2.75201 7.98792C2.69852 8.05617 2.59506 8.24763 2.78893 8.55335C2.83401 8.62434 2.92763 8.64497 2.99841 8.60017C3.06912 8.5548 3.0897 8.46028 3.04462 8.38937C2.97191 8.27422 2.96975 8.20323 2.99009 8.17728C3.01395 8.14658 3.08834 8.13079 3.16658 8.15818C3.21695 8.17575 3.33402 8.23659 3.33402 8.42031C3.33402 8.56705 3.2666 8.70154 3.14904 8.78897C3.03125 8.87664 2.8791 8.9017 2.73183 8.85545C2.55038 8.79969 2.42361 8.60734 2.42361 8.3876C2.42361 8.23038 2.45709 8.07148 2.52067 7.92772L3.48577 5.74269L4.45095 7.9278ZM3.33458 4.45066C3.392 4.40569 3.44293 4.35186 3.48585 4.29102C3.52869 4.35186 3.57962 4.40561 3.63712 4.45066C3.5797 4.49562 3.52877 4.54945 3.48585 4.61029C3.44301 4.54929 3.39216 4.49546 3.33458 4.45066Z" fill="#FFE15A"/>
<path d="M21.6804 15.4852C23.6973 15.4852 25.3324 13.8399 25.3324 11.8102C25.3324 9.7806 23.6973 8.13525 21.6804 8.13525C19.6634 8.13525 18.0283 9.7806 18.0283 11.8102C18.0283 13.8399 19.6634 15.4852 21.6804 15.4852Z" fill="#FFE15A"/>
<path d="M21.9541 7.12453C21.9541 7.27675 21.8315 7.4002 21.6802 7.4002C21.5289 7.4002 21.4062 7.27675 21.4062 7.12453C21.4062 6.97231 21.6802 6.29761 21.6802 6.29761C21.6802 6.29761 21.9541 6.97231 21.9541 7.12453Z" fill="#FFE15A"/>
<path d="M21.4062 16.4964C21.4062 16.3442 21.5289 16.2207 21.6802 16.2207C21.8315 16.2207 21.9541 16.3442 21.9541 16.4964C21.9541 16.6486 21.6802 17.3233 21.6802 17.3233C21.6802 17.3233 21.4062 16.6487 21.4062 16.4964Z" fill="#FFE15A"/>
<path d="M26.3374 12.086C26.1862 12.086 26.0635 11.9626 26.0635 11.8103C26.0635 11.6581 26.1862 11.5347 26.3374 11.5347C26.4887 11.5347 27.1592 11.8103 27.1592 11.8103C27.1592 11.8103 26.4887 12.086 26.3374 12.086Z" fill="#FFE15A"/>
<path d="M17.0239 11.5349C17.1752 11.5349 17.2979 11.6584 17.2979 11.8106C17.2979 11.9628 17.1752 12.0862 17.0239 12.0862C16.8726 12.0862 16.2021 11.8106 16.2021 11.8106C16.2021 11.8106 16.8726 11.5349 17.0239 11.5349Z" fill="#FFE15A"/>
<path d="M25.1669 8.69205C25.0599 8.79971 24.8864 8.79971 24.7795 8.69205C24.6725 8.5844 24.6725 8.40986 24.7795 8.3022C24.8864 8.19463 25.5542 7.91235 25.5542 7.91235C25.5542 7.91235 25.2739 8.5844 25.1669 8.69205Z" fill="#FFE15A"/>
<path d="M18.194 14.9291C18.301 14.8215 18.4743 14.8215 18.5814 14.9291C18.6885 15.0368 18.6884 15.2112 18.5814 15.319C18.4744 15.4267 17.8066 15.7088 17.8066 15.7088C17.8066 15.7088 18.087 15.0368 18.194 14.9291Z" fill="#FFE15A"/>
<path d="M24.7795 15.3188C24.6725 15.2111 24.6725 15.0367 24.7795 14.9289C24.8864 14.8212 25.0598 14.8213 25.1669 14.9289C25.2739 15.0366 25.5543 15.7085 25.5543 15.7085C25.5543 15.7085 24.8864 15.4264 24.7795 15.3188Z" fill="#FFE15A"/>
<path d="M18.5815 8.30212C18.6885 8.40978 18.6885 8.58424 18.5815 8.69197C18.4745 8.79971 18.3011 8.79963 18.1941 8.69197C18.087 8.58432 17.8066 7.91235 17.8066 7.91235C17.8066 7.91235 18.4745 8.19455 18.5815 8.30212Z" fill="#FFE15A"/>
<path d="M20.1516 7.37563C20.2095 7.51632 20.1431 7.67748 20.0033 7.73574C19.8635 7.794 19.7033 7.7272 19.6454 7.58651C19.5875 7.44581 19.584 6.71704 19.584 6.71704C19.584 6.71704 20.0937 7.23493 20.1516 7.37563Z" fill="#FFE15A"/>
<path d="M23.2094 16.2452C23.1515 16.1045 23.2179 15.9433 23.3577 15.8851C23.4975 15.8268 23.6577 15.8936 23.7156 16.0343C23.7735 16.175 23.777 16.9038 23.777 16.9038C23.777 16.9038 23.2672 16.386 23.2094 16.2452Z" fill="#FFE15A"/>
<path d="M26.0878 10.2721C25.948 10.3303 25.7878 10.2635 25.7299 10.1228C25.672 9.98216 25.7384 9.82099 25.8782 9.76273C26.018 9.70447 26.7422 9.70093 26.7422 9.70093C26.7422 9.70093 26.2276 10.2137 26.0878 10.2721Z" fill="#FFE15A"/>
<path d="M17.2736 13.3489C17.4134 13.2907 17.5736 13.3575 17.6315 13.4982C17.6894 13.6389 17.623 13.8 17.4832 13.8583C17.3434 13.9165 16.6191 13.9201 16.6191 13.9201C16.6191 13.9201 17.1338 13.4073 17.2736 13.3489Z" fill="#FFE15A"/>
<path d="M23.7155 7.58667C23.6576 7.72737 23.4974 7.79409 23.3577 7.73591C23.2179 7.67765 23.1515 7.51641 23.2094 7.37579C23.2673 7.2351 23.7769 6.71729 23.7769 6.71729C23.7769 6.71729 23.7734 7.44606 23.7155 7.58667Z" fill="#FFE15A"/>
<path d="M19.6453 16.0343C19.7032 15.8936 19.8635 15.8269 20.0032 15.885C20.1429 15.9433 20.2093 16.1045 20.1515 16.2451C20.0936 16.3858 19.584 16.9037 19.584 16.9037C19.584 16.9037 19.5874 16.1748 19.6453 16.0343Z" fill="#FFE15A"/>
<path d="M25.8782 13.8585C25.7384 13.8002 25.6721 13.639 25.7299 13.4984C25.7878 13.3577 25.948 13.291 26.0877 13.3491C26.2276 13.4074 26.7421 13.9202 26.7421 13.9202C26.7421 13.9202 26.018 13.9168 25.8782 13.8585Z" fill="#FFE15A"/>
<path d="M17.4831 9.76265C17.6229 9.82091 17.6892 9.98216 17.6314 10.1228C17.5735 10.2635 17.4133 10.3302 17.2735 10.272C17.1337 10.2137 16.6191 9.70093 16.6191 9.70093C16.6191 9.70093 17.3434 9.70431 17.4831 9.76265Z" fill="#FFE15A"/>
<path d="M21.0405 7.16086C21.07 7.31018 20.9736 7.45531 20.8252 7.48496C20.6769 7.51469 20.5326 7.41767 20.5032 7.26836C20.4736 7.11904 20.6115 6.40356 20.6115 6.40356C20.6115 6.40356 21.0109 7.01155 21.0405 7.16086Z" fill="#FFE15A"/>
<path d="M22.3208 16.4601C22.2912 16.3108 22.3876 16.1656 22.536 16.136C22.6844 16.1062 22.8286 16.2033 22.8581 16.3526C22.8876 16.5019 22.7497 17.2174 22.7497 17.2174C22.7497 17.2174 22.3502 16.6095 22.3208 16.4601Z" fill="#FFE15A"/>
<path d="M26.301 11.1667C26.1527 11.1964 26.0084 11.0995 25.979 10.9501C25.9494 10.8008 26.0457 10.6557 26.1942 10.626C26.3426 10.5963 27.0536 10.735 27.0536 10.735C27.0536 10.735 26.4494 11.137 26.301 11.1667Z" fill="#FFE15A"/>
<path d="M17.0602 12.4543C17.2086 12.4246 17.3528 12.5215 17.3823 12.6709C17.4118 12.8203 17.3154 12.9654 17.167 12.995C17.0186 13.0248 16.3076 12.886 16.3076 12.886C16.3076 12.886 16.9118 12.4841 17.0602 12.4543Z" fill="#FFE15A"/>
<path d="M24.4949 8.06759C24.4109 8.19418 24.2407 8.22819 24.1149 8.14358C23.9891 8.05905 23.9553 7.88781 24.0394 7.76122C24.1234 7.63471 24.7237 7.22681 24.7237 7.22681C24.7237 7.22681 24.579 7.94091 24.4949 8.06759Z" fill="#FFE15A"/>
<path d="M18.8655 15.5534C18.9495 15.4269 19.1197 15.3928 19.2455 15.4774C19.3713 15.5619 19.4051 15.7332 19.321 15.8598C19.237 15.9863 18.6367 16.3942 18.6367 16.3942C18.6367 16.3942 18.7815 15.6802 18.8655 15.5534Z" fill="#FFE15A"/>
<path d="M25.4001 14.643C25.2743 14.5585 25.2405 14.3873 25.3246 14.2607C25.4086 14.1342 25.5787 14.1001 25.7045 14.1847C25.8303 14.2692 26.2356 14.8732 26.2356 14.8732C26.2356 14.8732 25.5259 14.7276 25.4001 14.643Z" fill="#FFE15A"/>
<path d="M17.9605 8.97778C18.0863 9.06231 18.1202 9.23354 18.036 9.36014C17.952 9.48673 17.7819 9.52073 17.6561 9.43612C17.5303 9.35151 17.125 8.74756 17.125 8.74756C17.125 8.74756 17.8348 8.89325 17.9605 8.97778Z" fill="#FFE15A"/>
<path d="M19.321 7.76114C19.405 7.88773 19.3712 8.05889 19.2455 8.1435C19.1197 8.22803 18.9496 8.19402 18.8655 8.06751C18.7815 7.94091 18.6367 7.22681 18.6367 7.22681C18.6367 7.22681 19.237 7.63471 19.321 7.76114Z" fill="#FFE15A"/>
<path d="M24.0393 15.8597C23.9553 15.7331 23.9891 15.562 24.1149 15.4774C24.2407 15.3928 24.4107 15.4269 24.4948 15.5534C24.5788 15.68 24.7236 16.3941 24.7236 16.3941C24.7236 16.3941 24.1234 15.9863 24.0393 15.8597Z" fill="#FFE15A"/>
<path d="M25.7045 9.43612C25.5787 9.52065 25.4086 9.48665 25.3245 9.36014C25.2405 9.23354 25.2743 9.06239 25.4 8.97778C25.5257 8.89325 26.2355 8.74756 26.2355 8.74756C26.2355 8.74756 25.8303 9.35159 25.7045 9.43612Z" fill="#FFE15A"/>
<path d="M17.656 14.1846C17.7817 14.1001 17.9519 14.1341 18.036 14.2606C18.12 14.3872 18.0862 14.5584 17.9605 14.643C17.8347 14.7275 17.125 14.8732 17.125 14.8732C17.125 14.8732 17.5302 14.2693 17.656 14.1846Z" fill="#FFE15A"/>
<path d="M22.8581 7.26852C22.8285 7.41784 22.6844 7.51486 22.536 7.48512C22.3876 7.45539 22.2912 7.31034 22.3208 7.16103C22.3503 7.01171 22.7497 6.40381 22.7497 6.40381C22.7497 6.40381 22.8875 7.11913 22.8581 7.26852Z" fill="#FFE15A"/>
<path d="M20.5032 16.3526C20.5327 16.2033 20.6768 16.1062 20.8252 16.136C20.9736 16.1657 21.07 16.3108 21.0405 16.4601C21.0109 16.6094 20.6115 17.2173 20.6115 17.2173C20.6115 17.2173 20.4737 16.502 20.5032 16.3526Z" fill="#FFE15A"/>
<path d="M26.1942 12.995C26.0458 12.9653 25.9494 12.8203 25.979 12.6709C26.0085 12.5216 26.1526 12.4246 26.301 12.4543C26.4494 12.4841 27.0536 12.886 27.0536 12.886C27.0536 12.886 26.3426 13.0247 26.1942 12.995Z" fill="#FFE15A"/>
<path d="M17.167 10.626C17.3154 10.6557 17.4118 10.8008 17.3823 10.9501C17.3527 11.0994 17.2086 11.1964 17.0602 11.1667C16.9118 11.1369 16.3076 10.735 16.3076 10.735C16.3076 10.735 17.0186 10.5963 17.167 10.626Z" fill="#FFE15A"/>
<path d="M30.2708 12.7775C30.1638 12.7322 30.0416 12.7841 29.997 12.8911C29.997 12.8916 29.997 12.8916 29.997 12.8916C29.9962 12.8936 29.992 12.9035 29.9849 12.9204C29.8265 13.2925 29.499 13.8364 29.1683 14.348C29.4764 13.3502 29.7579 12.2844 29.7776 12.2095C29.807 12.0975 29.7412 11.9826 29.6301 11.9522C29.5189 11.9222 29.4045 11.9873 29.3734 12.0987C29.2296 12.617 28.9357 13.2992 28.6645 13.8766C28.7142 13.2328 28.7236 12.6363 28.7242 12.5931C28.7258 12.4791 28.6371 12.3848 28.5237 12.3794C28.4171 12.3827 28.3143 12.461 28.3059 12.5749C28.0377 16.2871 24.4879 17.9477 24.1422 18.1005C23.9614 18.1186 23.119 18.2141 22.3545 18.4812C22.2677 18.5115 22.1941 18.5419 22.1205 18.572C22.0932 18.5617 22.0639 18.5559 22.0331 18.5578C19.6867 18.7286 17.8157 17.76 16.471 15.6849C15.4551 14.117 15.1365 12.4712 15.1333 12.4547C15.1119 12.3403 15.003 12.2666 14.8888 12.2868C14.7751 12.3086 14.7003 12.4185 14.7219 12.5329C14.7304 12.5784 14.8702 13.2967 15.2552 14.2422C14.7401 13.4239 14.3811 12.4326 14.2547 11.9163C14.2522 11.906 14.2456 11.8982 14.2417 11.8887C14.2359 11.8741 14.2309 11.8594 14.2221 11.8468C14.216 11.8378 14.2079 11.8313 14.2006 11.8235C14.1891 11.8113 14.1782 11.7994 14.1641 11.7903C14.1561 11.785 14.1472 11.7825 14.1384 11.7784C14.123 11.7711 14.1079 11.7639 14.0906 11.7608C14.0787 11.7584 14.0665 11.76 14.0541 11.7597C14.0415 11.7596 14.0297 11.7564 14.0169 11.7586C14.0141 11.7591 14.0119 11.761 14.0091 11.7617C14.0064 11.7622 14.0038 11.7613 14.0011 11.7619C13.9899 11.7647 13.9813 11.7717 13.9711 11.7762C13.958 11.7819 13.9447 11.7862 13.9332 11.7941C13.9219 11.802 13.9135 11.8121 13.9041 11.8219C13.8948 11.8315 13.885 11.8401 13.8776 11.8513C13.8702 11.8626 13.8662 11.8755 13.8609 11.8881C13.8558 11.9004 13.85 11.912 13.8474 11.9253C13.8446 11.939 13.8458 11.953 13.8459 11.9672C13.8459 11.9786 13.8428 11.9895 13.8448 12.0011C13.8456 12.006 13.8472 12.0111 13.8481 12.0159V12.0167C13.8483 12.0176 13.8486 12.0188 13.8489 12.0198C13.9784 12.788 14.2872 13.5843 14.5665 14.1915C14.1231 13.6852 13.7525 13.1018 13.6212 12.7564C13.6175 12.7464 13.6098 12.7394 13.6047 12.7303C13.597 12.7164 13.5901 12.7021 13.5797 12.6906C13.5722 12.6824 13.5632 12.6771 13.5547 12.6702C13.5419 12.6599 13.5298 12.6495 13.5151 12.6424C13.5057 12.6379 13.4954 12.6365 13.4854 12.6333C13.4699 12.6286 13.455 12.6235 13.4386 12.6224C13.4257 12.6216 13.4129 12.6249 13.3998 12.6265C13.3877 12.6281 13.3758 12.6265 13.3638 12.6303C13.3614 12.6311 13.3598 12.6329 13.3577 12.6337C13.3554 12.6344 13.3532 12.634 13.351 12.6348C13.3396 12.6392 13.3315 12.6477 13.3213 12.6537C13.3094 12.6608 13.2967 12.6667 13.2865 12.6759C13.2761 12.6853 13.2689 12.697 13.2607 12.7082C13.2529 12.7187 13.2443 12.7282 13.2385 12.7399C13.2325 12.7523 13.2303 12.7656 13.2268 12.7789C13.2234 12.7919 13.2188 12.804 13.2179 12.8176C13.217 12.8312 13.2203 12.8448 13.2221 12.8586C13.2236 12.8705 13.222 12.8824 13.2257 12.8942C13.4536 13.6339 14.0017 14.514 14.431 15.134C14.0733 14.8565 13.8103 14.5565 13.734 14.4659C13.7257 14.4561 13.7176 14.4461 13.7094 14.4363C13.6355 14.3469 13.505 14.3342 13.4157 14.4071C13.3265 14.4803 13.3125 14.6121 13.3846 14.7022C13.3885 14.7071 13.4042 14.7269 13.4304 14.7578C13.7446 15.1341 14.0869 15.4852 14.3971 15.7815L13.9728 15.5996C13.8761 15.5576 13.7624 15.5955 13.7094 15.6881C13.6565 15.7807 13.6803 15.898 13.7652 15.9622C13.8064 15.9931 14.5578 16.5578 15.2082 16.8916C15.1469 16.8953 15.0749 16.8908 14.9943 16.8846C14.896 16.8751 14.7992 16.9459 14.7753 17.0463C14.7518 17.1471 14.8041 17.2501 14.8993 17.2896C14.9153 17.2962 15.1135 17.3785 15.3582 17.4662C15.3011 17.4896 15.2557 17.5378 15.2369 17.6003C15.2087 17.6938 15.2483 17.7951 15.3326 17.8436C15.3545 17.8564 15.6506 18.0272 16.0169 18.1787C16.0071 18.1939 15.9991 18.2104 15.9932 18.2285C15.9645 18.3169 15.9973 18.4141 16.0736 18.4672C16.1372 18.5112 17.5598 19.4827 19.2212 19.4827C19.3303 19.4827 19.4405 19.4786 19.5513 19.4696C19.6665 19.4605 19.7526 19.3588 19.7434 19.2427C19.7342 19.1266 19.6342 19.0389 19.5178 19.0497C18.4741 19.1353 17.4686 18.7409 16.8705 18.4396C16.9495 18.4202 16.9949 18.4025 17.0062 18.398C17.0984 18.3601 17.1516 18.2625 17.1336 18.1641C17.1156 18.0657 17.0313 17.9937 16.9317 17.9916C16.6889 17.9866 16.3527 17.8677 16.063 17.7401C16.1724 17.6849 16.2363 17.6322 16.2419 17.6276C16.305 17.5745 16.3315 17.4898 16.3101 17.4099C16.2885 17.3305 16.2225 17.2707 16.1416 17.2576C16.0526 17.2428 15.9418 17.2139 15.8256 17.1786C15.9385 17.1131 15.9866 17.0411 16.005 17.0044C16.0341 16.946 16.0347 16.8776 16.0068 16.8188C15.9788 16.7599 15.9255 16.7175 15.862 16.7039C15.8072 16.6919 15.7451 16.6718 15.6781 16.6454C15.6904 16.6331 15.7016 16.6191 15.7108 16.6031C15.7641 16.5121 15.7421 16.3952 15.6593 16.3297C15.655 16.3264 15.4924 16.198 15.2462 15.9844C15.2853 15.9699 15.3198 15.9432 15.3448 15.907C15.3976 15.8304 15.3938 15.7279 15.336 15.6554C15.3314 15.6496 15.1686 15.4437 14.9442 15.1308C15.0183 15.1887 15.0923 15.2478 15.1662 15.2957C15.2011 15.3179 15.2405 15.3291 15.2796 15.3291C15.3326 15.3291 15.3849 15.3089 15.4251 15.2698C15.4417 15.2536 15.4547 15.2351 15.4649 15.2154C15.592 15.352 15.7255 15.476 15.8657 15.5818C15.884 15.5956 15.9062 15.5953 15.9267 15.6022C15.9861 15.7025 16.0479 15.8029 16.1128 15.9033C17.3846 17.8725 19.178 18.9273 21.3289 18.9907C21.1309 19.1117 20.9159 19.2368 20.5754 19.3702C20.5011 19.3994 20.4355 19.4285 20.3695 19.4578C20.3376 19.4641 20.3077 19.4757 20.2827 19.4956C19.6885 19.7724 19.4425 20.0459 19.3427 20.2372C19.2431 20.4273 19.329 20.6224 19.4507 20.7237C19.4885 20.755 19.5366 20.771 19.5849 20.771C19.618 20.771 19.6512 20.7636 19.6812 20.7484C19.7553 20.7113 19.8048 20.6327 19.8015 20.55C19.8101 20.5405 19.8465 20.5101 19.9606 20.5063C20.0438 20.4993 20.2189 20.5182 20.4233 20.5348C20.6177 20.5509 20.8509 20.5692 21.0988 20.582C20.9437 20.7639 20.7635 20.9748 20.7635 20.9748C20.7093 21.0382 20.6974 21.1279 20.7334 21.2033C20.7696 21.279 20.8476 21.326 20.9294 21.323C21.0949 21.3172 21.2073 21.3139 21.2812 21.3124C21.3456 21.3972 21.4246 21.4309 21.4754 21.444C21.6195 21.4811 21.763 21.4231 21.8712 21.3543C21.953 21.4137 22.0349 21.4387 22.0997 21.4481C22.246 21.4683 22.3814 21.4255 22.4793 21.3769C22.5808 21.4428 22.6801 21.4597 22.7559 21.4597C22.7569 21.4597 22.7582 21.4597 22.7593 21.4597C22.9227 21.4589 23.0657 21.3794 23.1669 21.3016C23.2564 21.3551 23.3418 21.3723 23.4079 21.3753C23.5579 21.3806 23.6822 21.3226 23.7648 21.2682C24.06 21.3278 24.3144 21.1879 24.4825 21.0336C24.5592 21.0784 24.6322 21.0896 24.6903 21.0867C24.8398 21.0813 24.9537 20.9899 25.0268 20.908C25.3615 20.9487 25.6016 20.8866 25.7404 20.7207C25.8162 20.6306 25.8468 20.529 25.8552 20.4363C26.7836 20.431 26.8676 19.9209 26.8744 19.8579C26.8805 19.8007 26.8632 19.7435 26.8262 19.6995C26.7893 19.6555 26.7359 19.6282 26.6789 19.6249L24.2449 19.4776C24.143 19.4702 24.0521 19.5389 24.0285 19.639C24.028 19.6407 23.9866 19.7962 23.8567 19.9206C23.6821 20.0885 23.4007 20.1771 23.0947 20.2241C23.0958 20.1959 23.0919 20.1672 23.0812 20.1392C23.0394 20.0306 22.918 19.9778 22.8103 20.0186C22.3079 20.2148 21.4943 20.1901 20.8578 20.1456C20.9554 20.0653 21.073 19.9858 21.1669 19.9339C21.2463 19.8899 21.2889 19.7997 21.272 19.7099C21.2599 19.6447 21.213 19.5994 21.1566 19.5702C21.3335 19.4803 21.4786 19.3934 21.6163 19.309C21.8552 19.1617 22.081 19.0229 22.4921 18.8792C23.2857 18.6018 24.2041 18.5174 24.2133 18.5165C24.2341 18.5149 24.2546 18.5095 24.2741 18.5017C24.3068 18.4881 26.8973 17.3961 28.1178 14.8763C28.1017 14.9524 28.0846 15.0221 28.0659 15.0829C28.0341 15.1867 28.0856 15.2974 28.1849 15.3393C28.2618 15.3719 28.3492 15.3549 28.4084 15.2998C28.3312 15.5044 28.2615 15.6653 28.2046 15.7604C28.1465 15.8572 28.1745 15.9827 28.268 16.0453C28.2899 16.0597 28.3134 16.0695 28.3375 16.0753C28.243 16.2145 28.1472 16.3462 28.0517 16.4669C27.9881 16.5471 27.9918 16.6616 28.0583 16.7374C27.8942 16.9102 27.7488 17.0527 27.6383 17.1433C27.5661 17.2021 27.5426 17.3006 27.5758 17.3845C27.4692 17.4458 27.3817 17.4891 27.321 17.5076C27.2191 17.5384 27.1566 17.6417 27.1758 17.7471C27.1858 17.8027 27.2169 17.8496 27.2598 17.8805C27.1318 17.9151 26.9916 17.9484 26.8395 17.9788C26.7538 17.9961 26.6877 18.0648 26.6736 18.1517C26.6597 18.2385 26.7007 18.325 26.7765 18.3686C26.783 18.3723 26.8545 18.4131 26.9641 18.46C26.559 18.6242 25.8355 18.8387 24.6483 18.9564C24.5333 18.9679 24.4491 19.0713 24.4605 19.187C24.4717 19.3027 24.5712 19.3829 24.6895 19.3763C26.9431 19.152 27.639 18.5844 27.6674 18.56C27.7324 18.5052 27.7582 18.4159 27.7324 18.3344C27.7153 18.2804 27.6777 18.2369 27.6293 18.2117C28.3493 17.9836 28.6584 17.7313 28.6745 17.7177C28.7533 17.6518 28.7733 17.5379 28.7213 17.4485C28.6689 17.3591 28.56 17.3205 28.4648 17.3591C28.4381 17.3695 28.3953 17.3801 28.3413 17.3908C28.8244 17.0579 29.3374 16.6613 29.5629 16.4844C29.6026 16.4548 29.6387 16.4263 29.6703 16.3995C29.7579 16.3255 29.7702 16.1946 29.6979 16.1052C29.6261 16.0163 29.4954 16.0014 29.4059 16.0727C29.3732 16.0986 29.3392 16.1254 29.304 16.1529C29.1999 16.2308 29.0668 16.3188 28.9215 16.4093C29.4699 15.7828 30.0219 15.1036 30.1796 14.9085C30.1939 14.8908 30.208 14.8731 30.2224 14.8554C30.2948 14.7648 30.2807 14.6323 30.1907 14.5594C30.1004 14.4854 29.9685 14.5006 29.8963 14.5907L29.8958 14.5911L29.8957 14.5916C29.8917 14.5961 29.874 14.6183 29.8442 14.6554C29.679 14.8583 29.505 15.0548 29.3334 15.2383C29.8921 14.2195 30.315 13.2166 30.377 13.0681C30.3792 13.0627 30.3813 13.0574 30.3836 13.0519C30.4281 12.9455 30.3776 12.822 30.2708 12.7775ZM20.454 19.8821L20.5112 19.8896C20.4411 19.9556 20.3841 20.0296 20.3386 20.106C20.2392 20.0979 20.1489 20.091 20.0782 20.0877C20.1757 20.0236 20.3011 19.9541 20.454 19.8821Z" fill="#FFE15A"/>
</g>
<defs>
<clipPath id="clip0_1_18">
<rect width="41" height="27" fill="white"/>
</clipPath>
</defs>
</svg>
