<?xml version="1.0" encoding="utf-8"?><svg viewBox="0 0 81 81" xmlns="http://www.w3.org/2000/svg" xmlns:xlink="http://www.w3.org/1999/xlink"><style>:root>svg{display:none}:root>svg:target{display:block}</style><svg viewBox="0 0 18 14" id="check" xmlns="http://www.w3.org/2000/svg"><path d="M1 7l6 6L17 1"/></svg><svg viewBox="0 0 44 40" id="check-big" xmlns="http://www.w3.org/2000/svg"><path d="M21.69 26.631c-.453 0-.882-.185-1.174-.505l-8.172-8.985c-.544-.598-.46-1.49.19-1.99.647-.502 1.614-.424 2.158.174l6.997 7.692L38.904 4.023c.543-.6 1.51-.68 2.159-.179.65.5.736 1.392.193 1.99l-18.39 20.29c-.29.321-.72.507-1.174.507h-.001z"/><path d="M21.69 38.37C10.706 38.37 1.77 30.129 1.77 20c0-10.129 8.937-18.37 19.922-18.37 4.152 0 8.134 1.17 11.513 3.38.69.452.852 1.334.363 1.97-.49.637-1.447.787-2.137.335-2.858-1.87-6.226-2.859-9.74-2.859C12.396 4.456 4.834 11.43 4.834 20c0 8.57 7.563 15.543 16.858 15.543 9.294 0 16.857-6.972 16.857-15.543a14.41 14.41 0 00-.814-4.782c-.26-.742.181-1.54.986-1.78.806-.24 1.67.168 1.93.91.639 1.82.962 3.722.962 5.652 0 10.129-8.937 18.37-19.922 18.37z"/></svg><svg viewBox="0 0 28 28" id="chevron" xmlns="http://www.w3.org/2000/svg"><path fill-rule="evenodd" clip-rule="evenodd" d="M8.75 5.425L9.975 4.2l9.275 9.275-9.275 9.275-1.225-1.225 8.05-8.05-8.05-8.05z"/></svg><svg viewBox="0 0 16 16" id="close" xmlns="http://www.w3.org/2000/svg"><path d="M9.175 8l6.075-6.075A.833.833 0 0014.075.75L8 6.825 1.925.742A.833.833 0 00.75 1.917L6.825 8 .742 14.075a.834.834 0 101.175 1.175L8 9.175l6.075 6.075a.833.833 0 001.175-1.175L9.175 8z"/></svg><svg viewBox="0 0 31 22" id="email" xmlns="http://www.w3.org/2000/svg"><path d="M0 2.531V20.4l8.71-8.935L0 2.531zM1.73.741l11.028 11.31c1.393 1.43 3.822 1.43 5.215 0L29 .742H1.73z"/><path d="M19.974 13.527a6.196 6.196 0 01-4.347 1.751 6.196 6.196 0 01-4.348-1.751l-.572-.556L2 21.434h27.254l-8.708-8.463-.572.556zm2.311-2.246L31 19.75V2.811l-8.715 8.47z"/></svg><svg viewBox="0 0 37 37" id="instagram" xmlns="http://www.w3.org/2000/svg"><g clip-path="url(#fclip0_5_5)"><path d="M25.438 0H11.563A11.562 11.562 0 000 11.563v13.874A11.562 11.562 0 0011.563 37h13.874A11.562 11.562 0 0037 25.437V11.563A11.562 11.562 0 0025.437 0zm8.093 25.438c0 4.463-3.63 8.093-8.093 8.093H11.563c-4.464 0-8.094-3.63-8.094-8.093V11.563c0-4.464 3.63-8.094 8.094-8.094h13.874c4.464 0 8.094 3.63 8.094 8.094v13.874z"/><path d="M18.5 9.25a9.25 9.25 0 100 18.5 9.25 9.25 0 000-18.5zm0 15.031a5.788 5.788 0 01-5.781-5.781 5.788 5.788 0 015.781-5.781 5.788 5.788 0 015.781 5.781 5.79 5.79 0 01-5.781 5.781zM28.444 9.789a1.233 1.233 0 100-2.465 1.233 1.233 0 000 2.465z"/></g><defs><linearGradient id="fpaint0_linear_5_5" x1="3.385" y1="33.614" x2="33.614" y2="3.385" gradientUnits="userSpaceOnUse"><stop stop-color="#FFC107"/><stop offset=".507" stop-color="#F44336"/><stop offset=".99" stop-color="#9C27B0"/></linearGradient><linearGradient id="fpaint1_linear_5_5" x1="11.96" y1="25.04" x2="25.04" y2="11.96" gradientUnits="userSpaceOnUse"><stop stop-color="#FFC107"/><stop offset=".507" stop-color="#F44336"/><stop offset=".99" stop-color="#9C27B0"/></linearGradient><linearGradient id="fpaint2_linear_5_5" x1="27.572" y1="9.428" x2="29.315" y2="7.684" gradientUnits="userSpaceOnUse"><stop stop-color="#FFC107"/><stop offset=".507" stop-color="#F44336"/><stop offset=".99" stop-color="#9C27B0"/></linearGradient><clipPath id="fclip0_5_5"><path d="M0 0h37v37H0z"/></clipPath></defs></svg><svg viewBox="0 0 32 40" id="location" xmlns="http://www.w3.org/2000/svg"><path d="M16 .313C7.305.313.25 7.53.25 16.063c0 10.5 12.469 23.625 15.75 23.625 3.281 0 15.75-13.126 15.75-23.626 0-8.53-7.055-15.75-15.75-15.75zm0 22.312a7.873 7.873 0 01-7.875-7.875A7.873 7.873 0 0116 6.875a7.873 7.873 0 017.875 7.875A7.873 7.873 0 0116 22.625z"/></svg><svg viewBox="0 0 20 16" id="mail" xmlns="http://www.w3.org/2000/svg"><path d="M20 4.608v8.142a3.25 3.25 0 01-3.066 3.245L16.75 16H3.25a3.25 3.25 0 01-3.245-3.066L0 12.75V4.608l9.652 5.056a.75.75 0 00.696 0L20 4.608zM3.25 0h13.5a3.25 3.25 0 013.234 2.924L10 8.154.016 2.924A3.25 3.25 0 013.064.005L3.25 0h13.5-13.5z"/></svg><svg viewBox="0 0 25 25" id="phone" xmlns="http://www.w3.org/2000/svg"><g clip-path="url(#iclip0_1_10)"><path d="M18.32 16.352a2.345 2.345 0 00-3.32 0l-1.132 1.132a20.427 20.427 0 01-3.524-2.828 20.423 20.423 0 01-2.828-3.523L8.65 10a2.343 2.343 0 000-3.32L6.438 4.477a2.29 2.29 0 00-1.648-.688 2.344 2.344 0 00-1.665.688L2.063 5.53A4.977 4.977 0 00.782 9.633c.25 2.93 2.172 6.453 5.133 9.422 2.96 2.968 6.523 4.883 9.453 5.164.218.011.437.011.656 0a4.742 4.742 0 003.445-1.282l1.055-1.062a2.344 2.344 0 00.687-1.664 2.29 2.29 0 00-.687-1.648l-2.203-2.211zM20.781 4.211A11.657 11.657 0 0012.5.781a.781.781 0 100 1.563 10.157 10.157 0 0110.156 10.242.782.782 0 001.563 0 11.65 11.65 0 00-3.438-8.375z"/><path d="M16.336 8.68a4.686 4.686 0 011.383 3.367.781.781 0 101.562 0 6.248 6.248 0 00-6.25-6.328.781.781 0 100 1.562 4.688 4.688 0 013.305 1.399z"/></g><defs><clipPath id="iclip0_1_10"><path d="M0 0h25v25H0z"/></clipPath></defs></svg><svg viewBox="0 0 81 81" id="whatsapp" xmlns="http://www.w3.org/2000/svg"><g clip-path="url(#jclip0_19_8)"><path d="M40.51 0h-.02C18.16 0 0 18.164 0 40.5a40.196 40.196 0 007.71 23.738L2.663 79.284l15.567-4.977A40.146 40.146 0 0040.51 81C62.84 81 81 62.83 81 40.5S62.84 0 40.51 0z"/><path d="M64.076 57.191c-.977 2.76-4.855 5.047-7.948 5.716-2.116.45-4.88.81-14.185-3.048-11.902-4.93-19.566-17.025-20.164-17.81-.572-.785-4.81-6.404-4.81-12.216 0-5.811 2.952-8.641 4.142-9.856.977-.998 2.592-1.453 4.141-1.453.501 0 .952.025 1.357.045 1.19.05 1.787.122 2.571 2 .977 2.354 3.357 8.166 3.64 8.763.289.598.578 1.407.172 2.192-.38.81-.713 1.17-1.31 1.858-.598.689-1.165 1.215-1.762 1.954-.547.643-1.165 1.332-.476 2.521.688 1.165 3.068 5.048 6.57 8.166 4.522 4.025 8.187 5.31 9.498 5.857.977.405 2.142.31 2.855-.45.907-.977 2.025-2.597 3.164-4.192.81-1.144 1.833-1.286 2.906-.88 1.094.379 6.88 3.24 8.07 3.832 1.19.597 1.974.88 2.263 1.382.283.5.283 2.855-.694 5.62z"/></g><defs><clipPath id="jclip0_19_8"><path d="M0 0h81v81H0z"/></clipPath></defs></svg></svg>