<svg width="44" height="40" viewBox="0 0 44 40" fill="none" xmlns="http://www.w3.org/2000/svg">
<path d="M21.6906 26.6312C21.2375 26.6312 20.8076 26.4464 20.5164 26.1263L12.3437 17.1411C11.7998 16.5431 11.8846 15.6519 12.5331 15.1504C13.1815 14.6489 14.1481 14.7271 14.692 15.325L21.6886 23.0171L38.9042 4.02255C39.4469 3.42386 40.4133 3.34393 41.0628 3.84442C41.7122 4.3449 41.7987 5.236 41.256 5.83478L22.8665 26.1243C22.5757 26.4453 22.1456 26.6308 21.692 26.6312C21.6914 26.6312 21.6911 26.6312 21.6906 26.6312Z" fill="#FF9400"/>
<path d="M21.6905 38.3695C10.7055 38.3695 1.76855 30.1289 1.76855 19.9999C1.76855 9.87098 10.7055 1.63037 21.6905 1.63037C25.8433 1.63037 29.8246 2.79913 33.2039 5.01028C33.8941 5.46193 34.0565 6.34402 33.5668 6.98042C33.077 7.61682 32.1203 7.76669 31.4301 7.31504C28.5721 5.44497 25.2042 4.45646 21.6905 4.45646C12.3955 4.45646 4.83346 11.4292 4.83346 19.9999C4.83346 28.5707 12.3955 35.5434 21.6905 35.5434C30.9855 35.5434 38.5475 28.5707 38.5475 19.9999C38.5475 18.3656 38.2738 16.7567 37.734 15.218C37.4735 14.4755 37.9152 13.6789 38.7205 13.4386C39.5261 13.1987 40.3898 13.6058 40.6502 14.3482C41.2886 16.1684 41.6124 18.0699 41.6124 19.9999C41.6124 30.1289 32.6754 38.3695 21.6905 38.3695Z" fill="#FF9400"/>
</svg>
