<svg width="37" height="37" viewBox="0 0 37 37" fill="none" xmlns="http://www.w3.org/2000/svg">
<g clip-path="url(#clip0_5_5)">
<path d="M25.4375 0H11.5625C8.49593 0 5.55497 1.21819 3.38658 3.38658C1.21819 5.55497 0 8.49593 0 11.5625L0 25.4375C0 28.5041 1.21819 31.445 3.38658 33.6134C5.55497 35.7818 8.49593 37 11.5625 37H25.4375C28.5041 37 31.445 35.7818 33.6134 33.6134C35.7818 31.445 37 28.5041 37 25.4375V11.5625C37 8.49593 35.7818 5.55497 33.6134 3.38658C31.445 1.21819 28.5041 0 25.4375 0ZM33.5312 25.4375C33.5312 29.9006 29.9006 33.5312 25.4375 33.5312H11.5625C7.09938 33.5312 3.46875 29.9006 3.46875 25.4375V11.5625C3.46875 7.09938 7.09938 3.46875 11.5625 3.46875H25.4375C29.9006 3.46875 33.5312 7.09938 33.5312 11.5625V25.4375Z" fill="url(#paint0_linear_5_5)"/>
<path d="M18.5 9.25C16.0467 9.25 13.694 10.2246 11.9593 11.9593C10.2246 13.694 9.25 16.0467 9.25 18.5C9.25 20.9533 10.2246 23.306 11.9593 25.0407C13.694 26.7754 16.0467 27.75 18.5 27.75C20.9533 27.75 23.306 26.7754 25.0407 25.0407C26.7754 23.306 27.75 20.9533 27.75 18.5C27.75 16.0467 26.7754 13.694 25.0407 11.9593C23.306 10.2246 20.9533 9.25 18.5 9.25ZM18.5 24.2812C16.9673 24.2794 15.4979 23.6697 14.4141 22.5859C13.3303 21.5021 12.7206 20.0327 12.7188 18.5C12.7188 15.3111 15.3134 12.7188 18.5 12.7188C21.6866 12.7188 24.2812 15.3111 24.2812 18.5C24.2812 21.6866 21.6866 24.2812 18.5 24.2812Z" fill="url(#paint1_linear_5_5)"/>
<path d="M28.4435 9.78885C29.1242 9.78885 29.6761 9.23702 29.6761 8.55629C29.6761 7.87557 29.1242 7.32373 28.4435 7.32373C27.7628 7.32373 27.2109 7.87557 27.2109 8.55629C27.2109 9.23702 27.7628 9.78885 28.4435 9.78885Z" fill="url(#paint2_linear_5_5)"/>
</g>
<defs>
<linearGradient id="paint0_linear_5_5" x1="3.3855" y1="33.6145" x2="33.6145" y2="3.3855" gradientUnits="userSpaceOnUse">
<stop stop-color="#FFC107"/>
<stop offset="0.507" stop-color="#F44336"/>
<stop offset="0.99" stop-color="#9C27B0"/>
</linearGradient>
<linearGradient id="paint1_linear_5_5" x1="11.9603" y1="25.0397" x2="25.0397" y2="11.9603" gradientUnits="userSpaceOnUse">
<stop stop-color="#FFC107"/>
<stop offset="0.507" stop-color="#F44336"/>
<stop offset="0.99" stop-color="#9C27B0"/>
</linearGradient>
<linearGradient id="paint2_linear_5_5" x1="27.5717" y1="9.4281" x2="29.3153" y2="7.68448" gradientUnits="userSpaceOnUse">
<stop stop-color="#FFC107"/>
<stop offset="0.507" stop-color="#F44336"/>
<stop offset="0.99" stop-color="#9C27B0"/>
</linearGradient>
<clipPath id="clip0_5_5">
<rect width="37" height="37" fill="white"/>
</clipPath>
</defs>
</svg>
