<svg width="25" height="25" viewBox="0 0 25 25" fill="none" xmlns="http://www.w3.org/2000/svg">
<g clip-path="url(#clip0_1_10)">
<path d="M18.3208 16.3516C18.103 16.1331 17.8443 15.9597 17.5594 15.8414C17.2745 15.7231 16.9691 15.6623 16.6606 15.6623C16.3521 15.6623 16.0467 15.7231 15.7618 15.8414C15.4769 15.9597 15.2182 16.1331 15.0005 16.3516L13.8676 17.4844C12.5922 16.6749 11.4105 15.7264 10.3442 14.6563C9.27409 13.59 8.32558 12.4083 7.51609 11.1328L8.6489 10C8.8674 9.78229 9.04077 9.52356 9.15906 9.23867C9.27735 8.95379 9.33825 8.64835 9.33825 8.33988C9.33825 8.03141 9.27735 7.72597 9.15906 7.44109C9.04077 7.1562 8.8674 6.89747 8.6489 6.67972L6.43796 4.4766C6.2233 4.25738 5.96675 4.08355 5.68356 3.96544C5.40038 3.84734 5.09634 3.78737 4.78953 3.7891C4.48053 3.78834 4.17443 3.84869 3.88884 3.96668C3.60326 4.08467 3.34382 4.25797 3.12546 4.4766L2.06296 5.53129C1.55653 6.07579 1.17857 6.72687 0.956841 7.43666C0.735118 8.14644 0.675275 8.89689 0.781713 9.63285C1.03171 12.5625 2.95359 16.086 5.91453 19.0547C8.87546 22.0235 12.438 23.9375 15.3676 24.2188C15.5862 24.2305 15.8053 24.2305 16.0239 24.2188C16.6545 24.2453 17.2841 24.1456 17.8757 23.9256C18.4674 23.7055 19.0091 23.3696 19.4692 22.9375L20.5239 21.875C20.7425 21.6567 20.9158 21.3972 21.0338 21.1117C21.1518 20.8261 21.2122 20.52 21.2114 20.211C21.2131 19.9042 21.1532 19.6001 21.0351 19.3169C20.917 19.0338 20.7431 18.7772 20.5239 18.5625L18.3208 16.3516Z" fill="#FF9400"/>
<path d="M20.7813 4.21096C19.6955 3.12109 18.4048 2.25693 16.9835 1.66829C15.5622 1.07965 14.0384 0.778186 12.5 0.781273C12.2928 0.781273 12.0941 0.863583 11.9476 1.0101C11.8011 1.15661 11.7188 1.35532 11.7188 1.56252C11.7188 1.76972 11.8011 1.96844 11.9476 2.11495C12.0941 2.26146 12.2928 2.34377 12.5 2.34377C13.841 2.34373 15.1687 2.60925 16.4066 3.12501C17.6444 3.64077 18.7679 4.39657 19.7121 5.34879C20.6563 6.30101 21.4026 7.43079 21.908 8.67294C22.4133 9.91509 22.6676 11.245 22.6562 12.586C22.6563 12.7932 22.7386 12.9919 22.8851 13.1384C23.0316 13.2849 23.2303 13.3672 23.4375 13.3672C23.6447 13.3672 23.8434 13.2849 23.9899 13.1384C24.1364 12.9919 24.2188 12.7932 24.2188 12.586C24.2337 11.0312 23.9373 9.48922 23.3469 8.05085C22.7565 6.61249 21.8842 5.30687 20.7813 4.21096V4.21096Z" fill="#FF9400"/>
<path d="M16.3359 8.67969C16.7793 9.12038 17.1301 9.64531 17.3675 10.2236C17.605 10.8018 17.7244 11.4218 17.7188 12.0469C17.7188 12.2541 17.8011 12.4528 17.9476 12.5993C18.0941 12.7458 18.2928 12.8281 18.5 12.8281C18.7072 12.8281 18.9059 12.7458 19.0524 12.5993C19.1989 12.4528 19.2812 12.2541 19.2812 12.0469C19.2916 11.2196 19.1376 10.3984 18.8281 9.6311C18.5187 8.86378 18.0599 8.16553 17.4785 7.57687C16.8971 6.9882 16.2046 6.52083 15.4412 6.20186C14.6778 5.8829 13.8586 5.71869 13.0312 5.71875C12.824 5.71875 12.6253 5.80106 12.4788 5.94757C12.3323 6.09409 12.25 6.2928 12.25 6.5C12.25 6.7072 12.3323 6.90591 12.4788 7.05243C12.6253 7.19894 12.824 7.28125 13.0312 7.28125C13.6469 7.28589 14.2557 7.41178 14.8227 7.65172C15.3897 7.89167 15.9039 8.24098 16.3359 8.67969Z" fill="#FF9400"/>
</g>
<defs>
<clipPath id="clip0_1_10">
<rect width="25" height="25" fill="white"/>
</clipPath>
</defs>
</svg>
