<svg width="81" height="81" viewBox="0 0 81 81" fill="none" xmlns="http://www.w3.org/2000/svg">
<g clip-path="url(#clip0_19_8)">
<path d="M40.5102 0H40.4899C18.1592 0 5.31407e-05 18.1642 5.31407e-05 40.5C-0.0138136 49.0304 2.68646 57.3439 7.71024 64.2381L2.66293 79.2838L18.2301 74.3074C24.8335 78.6883 32.5857 81.017 40.5102 81C62.8409 81 81.0001 62.8307 81.0001 40.5C81.0001 18.1693 62.8409 0 40.5102 0Z" fill="#4CAF50"/>
<path d="M64.0763 57.1911C63.0992 59.9501 59.2213 62.2384 56.1282 62.9066C54.012 63.3572 51.2479 63.7166 41.943 59.859C30.0411 54.9281 22.3765 42.8338 21.7791 42.0491C21.207 41.2644 16.9697 35.6451 16.9697 29.8333C16.9697 24.0216 19.9212 21.1916 21.1109 19.9766C22.0879 18.9793 23.7029 18.5237 25.252 18.5237C25.7532 18.5237 26.2037 18.549 26.6087 18.5692C27.7984 18.6199 28.3958 18.6907 29.1805 20.5689C30.1575 22.923 32.5369 28.7347 32.8204 29.3321C33.109 29.9295 33.3975 30.7395 32.9925 31.5242C32.6129 32.3342 32.2787 32.6936 31.6814 33.3821C31.084 34.0706 30.517 34.5971 29.9196 35.3362C29.3729 35.9792 28.7552 36.6677 29.4437 37.8574C30.1322 39.0217 32.5116 42.9047 36.0149 46.0232C40.5357 50.0479 44.2009 51.3337 45.5121 51.8805C46.4892 52.2855 47.6535 52.1893 48.3673 51.4299C49.2735 50.4529 50.3923 48.8329 51.5314 47.2382C52.3414 46.0941 53.364 45.9523 54.4373 46.3573C55.5308 46.737 61.3172 49.5973 62.5069 50.1896C63.6966 50.787 64.4813 51.0705 64.7698 51.5717C65.0533 52.0729 65.0533 54.4269 64.0763 57.1911Z" fill="#FAFAFA"/>
</g>
<defs>
<clipPath id="clip0_19_8">
<rect width="81" height="81" fill="white"/>
</clipPath>
</defs>
</svg>
